<?xml version="1.0" standalone="no"?>
<!DOCTYPE svg PUBLIC "-//W3C//DTD SVG 20010904//EN"
 "http://www.w3.org/TR/2001/REC-SVG-20010904/DTD/svg10.dtd">
<svg version="1.0" xmlns="http://www.w3.org/2000/svg"
 width="360.000000pt" height="360.000000pt" viewBox="0 0 360.000000 360.000000"
 preserveAspectRatio="xMidYMid meet">
<metadata>
Created by potrace 1.14, written by Peter Selinger 2001-2017
</metadata>
<g transform="translate(0.000000,360.000000) scale(0.100000,-0.100000)"
fill="#000000" stroke="none">
<path d="M1520 3220 c-126 -34 -213 -79 -341 -174 -234 -176 -464 -498 -573
-801 -20 -55 -51 -129 -70 -165 -56 -106 -93 -210 -126 -351 -38 -165 -45
-236 -31 -318 16 -96 45 -148 129 -226 41 -38 109 -105 151 -147 42 -42 117
-107 167 -145 50 -37 115 -96 145 -131 59 -69 200 -188 294 -247 81 -52 202
-103 283 -120 129 -28 307 -13 435 35 91 35 232 121 312 191 44 38 107 83 140
101 98 51 175 107 269 198 252 243 410 512 467 797 20 96 21 118 11 201 -12
106 -37 167 -106 260 -38 51 -49 76 -57 125 -34 205 -148 401 -299 516 -97 74
-247 137 -398 167 -59 12 -89 25 -128 54 -129 97 -276 167 -398 189 -85 16
-201 12 -276 -9z m-375 -774 c55 -23 69 -70 40 -139 -8 -20 -15 -39 -15 -42 0
-3 96 -5 214 -5 l214 0 16 25 c23 35 56 46 99 34 57 -16 61 -27 67 -188 l5
-146 51 105 c28 58 68 152 89 210 20 58 48 116 61 130 43 45 136 22 150 -37 7
-25 -2 -72 -21 -115 -7 -17 7 -18 207 -18 l214 0 21 29 c12 15 34 31 50 34 35
7 88 -15 102 -41 8 -14 11 -187 11 -541 l0 -520 -24 -27 -23 -28 -129 2 c-145
3 -160 6 -191 35 -31 28 -30 76 1 110 l25 26 -22 53 c-12 29 -22 54 -22 55 0
1 -37 -9 -80 -22 -156 -49 -336 -88 -373 -81 -76 12 -99 101 -42 158 17 17 40
49 52 72 33 65 123 293 147 376 13 41 31 90 41 108 l19 32 -32 0 c-30 0 -35
-5 -82 -96 -27 -52 -58 -103 -68 -111 -24 -23 -72 -20 -107 6 l-30 22 0 -345
0 -345 -24 -27 -23 -28 -129 2 c-71 2 -138 5 -149 9 -64 18 -86 93 -41 138
l25 25 -24 54 -24 54 -63 -19 c-35 -11 -126 -36 -203 -55 -148 -38 -201 -40
-235 -9 -41 37 -30 113 20 148 26 18 106 198 170 385 28 81 58 157 66 170 14
21 13 22 -18 22 -31 0 -36 -5 -70 -73 -78 -149 -100 -169 -161 -143 -75 31
-76 66 -8 201 27 55 69 152 91 215 42 116 59 146 95 161 28 11 31 11 70 -5z"/>
<path d="M1083 2388 c-5 -7 -31 -71 -58 -143 -26 -71 -67 -169 -91 -217 -42
-83 -43 -88 -25 -98 24 -12 36 3 106 133 l47 87 294 0 294 0 -2 -432 -3 -433
-95 -5 c-78 -4 -95 -8 -98 -22 -2 -9 5 -19 15 -22 15 -4 200 -10 241 -7 9 1
12 111 12 515 l0 515 -22 7 c-24 7 -48 -17 -48 -48 0 -17 -17 -18 -281 -18
l-281 0 5 23 c2 12 15 50 28 84 19 51 20 64 10 77 -16 19 -35 20 -48 4z"/>
<path d="M2020 2381 c-5 -11 -30 -73 -54 -138 -23 -65 -62 -155 -85 -200 -44
-89 -49 -108 -27 -116 20 -8 37 14 96 126 l52 97 294 0 294 0 -2 -432 -3 -433
-95 -5 c-78 -4 -95 -8 -98 -22 -4 -22 15 -26 147 -30 106 -3 115 -1 122 17 4
11 8 239 8 507 1 430 -1 488 -15 502 -26 26 -49 16 -59 -27 l-7 -27 -280 0
-280 0 5 23 c3 12 15 50 28 83 20 52 21 64 10 78 -18 21 -38 20 -51 -3z"/>
<path d="M1280 2070 c36 -36 34 -62 -10 -197 -23 -71 -58 -166 -77 -212 -19
-45 -33 -85 -31 -86 2 -2 40 5 85 17 l81 20 -24 66 c-27 70 -25 109 4 135 29
25 59 29 95 12 30 -14 42 -33 95 -148 33 -73 67 -148 75 -167 14 -32 15 -9 16
273 l1 307 -165 0 c-164 0 -165 0 -145 -20z"/>
<path d="M2217 2075 c37 -26 38 -66 4 -172 -16 -54 -50 -149 -75 -212 -25 -63
-44 -116 -42 -118 2 -3 158 36 163 41 2 1 -9 32 -24 69 -26 65 -26 68 -10 102
21 45 57 60 105 44 32 -10 40 -22 97 -143 34 -72 70 -152 80 -178 10 -27 19
-48 21 -48 2 0 4 142 4 315 l0 315 -172 0 c-156 0 -170 -1 -151 -15z"/>
<path d="M1177 1998 c-8 -24 -30 -86 -47 -138 -63 -185 -156 -390 -176 -390
-7 0 -18 -10 -25 -21 -9 -17 -8 -25 5 -37 15 -15 23 -15 101 1 71 15 338 87
380 103 8 4 22 -19 39 -64 32 -82 63 -105 86 -62 9 16 1 42 -40 137 -80 184
-114 248 -132 251 -24 5 -31 -30 -13 -72 9 -20 24 -59 35 -85 l19 -48 -102
-26 c-95 -25 -233 -57 -242 -57 -8 0 6 40 48 135 25 55 66 164 92 242 40 118
46 145 35 158 -23 28 -47 18 -63 -27z"/>
<path d="M2133 2028 c-6 -7 -27 -65 -48 -128 -64 -195 -168 -430 -190 -430 -8
0 -19 -9 -25 -21 -15 -27 3 -49 39 -49 27 0 277 63 391 99 35 11 67 17 71 13
3 -4 14 -29 24 -57 29 -82 63 -107 85 -64 9 16 6 34 -19 92 -52 126 -129 285
-141 292 -7 4 -19 0 -27 -8 -14 -14 -12 -24 21 -103 20 -48 35 -88 34 -89 -13
-12 -339 -88 -346 -81 -2 3 14 44 36 93 44 97 98 239 133 350 19 60 20 74 10
87 -16 19 -35 20 -48 4z"/>
<path d="M2525 1350 c-3 -5 -1 -10 4 -10 6 0 11 5 11 10 0 6 -2 10 -4 10 -3 0
-8 -4 -11 -10z"/>
</g>
</svg>
