<svg data-v-2cb57da0="" version="1.0" xmlns="http://www.w3.org/2000/svg" xmlns:xlink="http://www.w3.org/1999/xlink"
  width="100%" height="100%" viewBox="0 0 340.000000 250.000000" preserveAspectRatio="xMidYMid meet"
  color-interpolation-filters="sRGB" style="margin: auto;">
  <g data-v-2cb57da0="" class="iconmbgsvg" transform="translate(95,48.76731872558594)">
    <g fill="#426755" hollow-target="text">
      <g mask="url(#abbda75d-28b2-47ed-96a9-d95775248495)">
        <g>
          <rect fill="#426755" fill-opacity="0" stroke-width="2" x="0" y="0" width="150" height="152.4653649512619"
            class="image-rect"></rect> <svg filter="url(#colors4498762924)" x="0" y="0" width="150"
            height="152.4653649512619" filtersec="colorsf3075222130" class="image-svg-svg primary"
            style="overflow: visible;"><svg
              viewBox="0.0005642175674438477 0.00072479248046875 261.7687072753906 266.0718994140625"
              xmlns="http://www.w3.org/2000/svg">
              <title>6</title>
              <g fill="#F5AD1E" fill-rule="evenodd">
                <path
                  d="M226.27 179.857C305.602 20.568 143.82-27.684 38.042 78.64-85.698 203.022 155.84 321.274 226.27 179.857"
                  fill-opacity=".6"></path>
                <path
                  d="M119.854 265.99c-52.47-2.525-108.51-76.496-105.696-138.626C16.694 71.31 73.028-1.988 122.74.042c54.32 2.217 107.963 75.567 105.696 138.628-2.318 64.516-51.841 130.053-108.583 127.32"
                  fill-opacity=".7"></path>
                <path
                  d="M169.919 242.38c-34.285 6.953-74.84-10.034-104.446-22.172-23.034-9.444-58.165-22.552-64.136-46.08-10.61-41.79 44.017-112.926 90.81-124.273 53.747-13.032 157.785 18.196 168.582 68.252 8.727 40.456-38.84 113.732-90.81 124.273"
                  fill-opacity=".7"></path>
              </g>
            </svg></svg>
          <defs>
            <filter id="colors4498762924">
              <feColorMatrix type="matrix" values="0 0 0 0 0.2578125  0 0 0 0 0.40234375  0 0 0 0 0.33203125  0 0 0 1 0"
                class="icon-fecolormatrix"></feColorMatrix>
            </filter>
            <filter id="colorsf3075222130">
              <feColorMatrix type="matrix"
                values="0 0 0 0 0.99609375  0 0 0 0 0.99609375  0 0 0 0 0.99609375  0 0 0 1 0"
                class="icon-fecolormatrix"></feColorMatrix>
            </filter>
            <filter id="colorsb3191803005">
              <feColorMatrix type="matrix" values="0 0 0 0 0  0 0 0 0 0  0 0 0 0 0  0 0 0 1 0"
                class="icon-fecolormatrix"></feColorMatrix>
            </filter>
          </defs>
        </g>
      </g>
      <g transform="translate(27.872447967529297,44.90559768676758)">
        <g data-gra="path-name" fill-rule="" class="tp-name">
          <g transform="scale(1)">
            <g>
              <path
                d="M34 6.7L34 6.7 34 6.7Q33 4.15 32.05 1.55L32.05 1.55Q31.8 0.8 31.5 0L31.5 0Q19.3 4 6.8 6.65L6.8 6.65Q6 6.8 5.33 6.35 4.65 5.9 4.5 5.05L4.5 5.05Q4.35 4.25 4.8 3.6 5.25 2.95 6.05 2.75L6.05 2.75Q6.15 2.75 6.25 2.7L6.25 2.7Q6.55 2.65 6.8 2.6L6.8 2.6Q13.85-11.3 18.15-26.3L18.15-26.3Q18.4-27.1 19.07-27.48 19.75-27.85 20.6-27.65L20.6-27.65Q21.4-27.4 21.78-26.7 22.15-26 21.95-25.2L21.95-25.2Q17.95-11.35 11.65 1.65L11.65 1.65Q21.4-0.15 30.4-2.85L30.4-2.85Q28.75-7.25 26.85-11.6L26.85-11.6Q26.5-12.55 27-13.18 27.5-13.8 28.3-13.78 29.1-13.75 29.6-12.8L29.6-12.8Q30.6-10.75 31.55-8.65L31.55-8.65Q34.9-1.8 37.7 5.3L37.7 5.3Q37.95 6.05 37.63 6.78 37.3 7.5 36.55 7.85L36.55 7.85Q35.75 8.1 35.02 7.78 34.3 7.45 34 6.7ZM47.25-37.8L47.25-37.8 47.25-37.8 47.25 13.95Q47.25 14.8 46.68 15.38 46.1 15.95 45.25 15.95L45.25 15.95Q44.45 15.95 43.9 15.4L43.9 15.4 33.75 15.4Q33.15 15.4 32.75 14.98 32.35 14.55 32.35 13.95L32.35 13.95Q32.35 13.35 32.75 12.95 33.15 12.55 33.75 12.55L33.75 12.55 42.6 12.55Q42.9 12.55 43.1 12.35 43.3 12.15 43.3 11.85L43.3 11.85 43.3-33.5Q36.6-33.5 27.78-33.5 18.95-33.5 12-33.55L12-33.55Q9.25-27.65 5.9-22.1L5.9-22.1Q5.3-21.2 4.5-21.3 3.7-21.4 3.23-22.1 2.75-22.8 3.25-23.7L3.25-23.7Q6.2-28.8 8.43-34.27 10.65-39.75 12.45-45.35L12.45-45.35Q12.75-46.15 13.45-46.5 14.15-46.85 14.95-46.6L14.95-46.6Q15.75-46.3 16.1-45.6 16.45-44.9 16.2-44.1L16.2-44.1Q14.9-40.15 13.2-36.35L13.2-36.35Q19.3-36.35 27-36.35L27-36.35Q30.65-36.35 34.25-36.35L34.25-36.35Q39.15-36.35 43.3-36.35L43.3-36.35 43.3-37.8Q43.3-38.6 43.88-39.18 44.45-39.75 45.25-39.75L45.25-39.75Q46.1-39.75 46.68-39.18 47.25-38.6 47.25-37.8ZM84 6.7L84 6.7 84 6.7Q83 4.15 82.05 1.55L82.05 1.55Q81.8 0.8 81.5 0L81.5 0Q69.3 4 56.8 6.65L56.8 6.65Q56 6.8 55.33 6.35 54.65 5.9 54.5 5.05L54.5 5.05Q54.35 4.25 54.8 3.6 55.25 2.95 56.05 2.75L56.05 2.75Q56.15 2.75 56.25 2.7L56.25 2.7Q56.55 2.65 56.8 2.6L56.8 2.6Q63.85-11.3 68.15-26.3L68.15-26.3Q68.4-27.1 69.08-27.48 69.75-27.85 70.6-27.65L70.6-27.65Q71.4-27.4 71.78-26.7 72.15-26 71.95-25.2L71.95-25.2Q67.95-11.35 61.65 1.65L61.65 1.65Q71.4-0.15 80.4-2.85L80.4-2.85Q78.75-7.25 76.85-11.6L76.85-11.6Q76.5-12.55 77-13.18 77.5-13.8 78.3-13.78 79.1-13.75 79.6-12.8L79.6-12.8Q80.6-10.75 81.55-8.65L81.55-8.65Q84.9-1.8 87.7 5.3L87.7 5.3Q87.95 6.05 87.63 6.78 87.3 7.5 86.55 7.85L86.55 7.85Q85.75 8.1 85.03 7.78 84.3 7.45 84 6.7ZM97.25-37.8L97.25-37.8 97.25-37.8 97.25 13.95Q97.25 14.8 96.68 15.38 96.1 15.95 95.25 15.95L95.25 15.95Q94.45 15.95 93.9 15.4L93.9 15.4 83.75 15.4Q83.15 15.4 82.75 14.98 82.35 14.55 82.35 13.95L82.35 13.95Q82.35 13.35 82.75 12.95 83.15 12.55 83.75 12.55L83.75 12.55 92.6 12.55Q92.9 12.55 93.1 12.35 93.3 12.15 93.3 11.85L93.3 11.85 93.3-33.5Q86.6-33.5 77.78-33.5 68.95-33.5 62-33.55L62-33.55Q59.25-27.65 55.9-22.1L55.9-22.1Q55.3-21.2 54.5-21.3 53.7-21.4 53.23-22.1 52.75-22.8 53.25-23.7L53.25-23.7Q56.2-28.8 58.42-34.27 60.65-39.75 62.45-45.35L62.45-45.35Q62.75-46.15 63.45-46.5 64.15-46.85 64.95-46.6L64.95-46.6Q65.75-46.3 66.1-45.6 66.45-44.9 66.2-44.1L66.2-44.1Q64.9-40.15 63.2-36.35L63.2-36.35Q69.3-36.35 77-36.35L77-36.35Q80.65-36.35 84.25-36.35L84.25-36.35Q89.15-36.35 93.3-36.35L93.3-36.35 93.3-37.8Q93.3-38.6 93.88-39.18 94.45-39.75 95.25-39.75L95.25-39.75Q96.1-39.75 96.68-39.18 97.25-38.6 97.25-37.8Z"
                transform="translate(-2.9948978424072266, 46.704166412353516)"></path>
            </g>
            <!---->
            <!---->
            <!---->
            <!---->
            <!---->
            <!---->
            <!---->
          </g>
        </g>
        <!---->
      </g>
    </g>
  </g>
  <mask id="abbda75d-28b2-47ed-96a9-d95775248495">
    <g fill="white">
      <g>
        <rect fill-opacity="1" stroke-width="2" x="0" y="0" width="150" height="152.4653649512619" class="image-rect">
        </rect> <svg x="0" y="0" width="150" height="152.4653649512619" class="image-svg-svg primary"
          style="overflow: visible;" filter="url(#colorsf3075222130)"><svg
            viewBox="0.0005642175674438477 0.00072479248046875 261.7687072753906 266.0718994140625"
            xmlns="http://www.w3.org/2000/svg">
            <title>6</title>
            <g fill-rule="evenodd">
              <path
                d="M226.27 179.857C305.602 20.568 143.82-27.684 38.042 78.64-85.698 203.022 155.84 321.274 226.27 179.857"
                fill-opacity="1"></path>
              <path
                d="M119.854 265.99c-52.47-2.525-108.51-76.496-105.696-138.626C16.694 71.31 73.028-1.988 122.74.042c54.32 2.217 107.963 75.567 105.696 138.628-2.318 64.516-51.841 130.053-108.583 127.32"
                fill-opacity="1"></path>
              <path
                d="M169.919 242.38c-34.285 6.953-74.84-10.034-104.446-22.172-23.034-9.444-58.165-22.552-64.136-46.08-10.61-41.79 44.017-112.926 90.81-124.273 53.747-13.032 157.785 18.196 168.582 68.252 8.727 40.456-38.84 113.732-90.81 124.273"
                fill-opacity="1"></path>
            </g>
          </svg></svg>
        <defs> </defs>
      </g>
    </g>
    <g transform="translate(27.872447967529297,44.90559768676758)" fill="black" stroke="black" stroke-width="6"
      stroke-linejoin="round">
      <g data-gra="path-name" fill-rule="" class="tp-name">
        <g transform="scale(1)">
          <g>
            <path
              d="M34 6.7L34 6.7 34 6.7Q33 4.15 32.05 1.55L32.05 1.55Q31.8 0.8 31.5 0L31.5 0Q19.3 4 6.8 6.65L6.8 6.65Q6 6.8 5.33 6.35 4.65 5.9 4.5 5.05L4.5 5.05Q4.35 4.25 4.8 3.6 5.25 2.95 6.05 2.75L6.05 2.75Q6.15 2.75 6.25 2.7L6.25 2.7Q6.55 2.65 6.8 2.6L6.8 2.6Q13.85-11.3 18.15-26.3L18.15-26.3Q18.4-27.1 19.07-27.48 19.75-27.85 20.6-27.65L20.6-27.65Q21.4-27.4 21.78-26.7 22.15-26 21.95-25.2L21.95-25.2Q17.95-11.35 11.65 1.65L11.65 1.65Q21.4-0.15 30.4-2.85L30.4-2.85Q28.75-7.25 26.85-11.6L26.85-11.6Q26.5-12.55 27-13.18 27.5-13.8 28.3-13.78 29.1-13.75 29.6-12.8L29.6-12.8Q30.6-10.75 31.55-8.65L31.55-8.65Q34.9-1.8 37.7 5.3L37.7 5.3Q37.95 6.05 37.63 6.78 37.3 7.5 36.55 7.85L36.55 7.85Q35.75 8.1 35.02 7.78 34.3 7.45 34 6.7ZM47.25-37.8L47.25-37.8 47.25-37.8 47.25 13.95Q47.25 14.8 46.68 15.38 46.1 15.95 45.25 15.95L45.25 15.95Q44.45 15.95 43.9 15.4L43.9 15.4 33.75 15.4Q33.15 15.4 32.75 14.98 32.35 14.55 32.35 13.95L32.35 13.95Q32.35 13.35 32.75 12.95 33.15 12.55 33.75 12.55L33.75 12.55 42.6 12.55Q42.9 12.55 43.1 12.35 43.3 12.15 43.3 11.85L43.3 11.85 43.3-33.5Q36.6-33.5 27.78-33.5 18.95-33.5 12-33.55L12-33.55Q9.25-27.65 5.9-22.1L5.9-22.1Q5.3-21.2 4.5-21.3 3.7-21.4 3.23-22.1 2.75-22.8 3.25-23.7L3.25-23.7Q6.2-28.8 8.43-34.27 10.65-39.75 12.45-45.35L12.45-45.35Q12.75-46.15 13.45-46.5 14.15-46.85 14.95-46.6L14.95-46.6Q15.75-46.3 16.1-45.6 16.45-44.9 16.2-44.1L16.2-44.1Q14.9-40.15 13.2-36.35L13.2-36.35Q19.3-36.35 27-36.35L27-36.35Q30.65-36.35 34.25-36.35L34.25-36.35Q39.15-36.35 43.3-36.35L43.3-36.35 43.3-37.8Q43.3-38.6 43.88-39.18 44.45-39.75 45.25-39.75L45.25-39.75Q46.1-39.75 46.68-39.18 47.25-38.6 47.25-37.8ZM84 6.7L84 6.7 84 6.7Q83 4.15 82.05 1.55L82.05 1.55Q81.8 0.8 81.5 0L81.5 0Q69.3 4 56.8 6.65L56.8 6.65Q56 6.8 55.33 6.35 54.65 5.9 54.5 5.05L54.5 5.05Q54.35 4.25 54.8 3.6 55.25 2.95 56.05 2.75L56.05 2.75Q56.15 2.75 56.25 2.7L56.25 2.7Q56.55 2.65 56.8 2.6L56.8 2.6Q63.85-11.3 68.15-26.3L68.15-26.3Q68.4-27.1 69.08-27.48 69.75-27.85 70.6-27.65L70.6-27.65Q71.4-27.4 71.78-26.7 72.15-26 71.95-25.2L71.95-25.2Q67.95-11.35 61.65 1.65L61.65 1.65Q71.4-0.15 80.4-2.85L80.4-2.85Q78.75-7.25 76.85-11.6L76.85-11.6Q76.5-12.55 77-13.18 77.5-13.8 78.3-13.78 79.1-13.75 79.6-12.8L79.6-12.8Q80.6-10.75 81.55-8.65L81.55-8.65Q84.9-1.8 87.7 5.3L87.7 5.3Q87.95 6.05 87.63 6.78 87.3 7.5 86.55 7.85L86.55 7.85Q85.75 8.1 85.03 7.78 84.3 7.45 84 6.7ZM97.25-37.8L97.25-37.8 97.25-37.8 97.25 13.95Q97.25 14.8 96.68 15.38 96.1 15.95 95.25 15.95L95.25 15.95Q94.45 15.95 93.9 15.4L93.9 15.4 83.75 15.4Q83.15 15.4 82.75 14.98 82.35 14.55 82.35 13.95L82.35 13.95Q82.35 13.35 82.75 12.95 83.15 12.55 83.75 12.55L83.75 12.55 92.6 12.55Q92.9 12.55 93.1 12.35 93.3 12.15 93.3 11.85L93.3 11.85 93.3-33.5Q86.6-33.5 77.78-33.5 68.95-33.5 62-33.55L62-33.55Q59.25-27.65 55.9-22.1L55.9-22.1Q55.3-21.2 54.5-21.3 53.7-21.4 53.23-22.1 52.75-22.8 53.25-23.7L53.25-23.7Q56.2-28.8 58.42-34.27 60.65-39.75 62.45-45.35L62.45-45.35Q62.75-46.15 63.45-46.5 64.15-46.85 64.95-46.6L64.95-46.6Q65.75-46.3 66.1-45.6 66.45-44.9 66.2-44.1L66.2-44.1Q64.9-40.15 63.2-36.35L63.2-36.35Q69.3-36.35 77-36.35L77-36.35Q80.65-36.35 84.25-36.35L84.25-36.35Q89.15-36.35 93.3-36.35L93.3-36.35 93.3-37.8Q93.3-38.6 93.88-39.18 94.45-39.75 95.25-39.75L95.25-39.75Q96.1-39.75 96.68-39.18 97.25-38.6 97.25-37.8Z"
              transform="translate(-2.9948978424072266, 46.704166412353516)"></path>
          </g>
        </g>
      </g>
    </g>
  </mask>
  <defs v-gra="od"></defs>
</svg>