<svg data-v-2cb57da0="" version="1.0" xmlns="http://www.w3.org/2000/svg" xmlns:xlink="http://www.w3.org/1999/xlink"
  width="100%" height="100%" viewBox="0 0 340.000000 250.000000" preserveAspectRatio="xMidYMid meet"
  color-interpolation-filters="sRGB" style="margin: auto;">
  <rect data-v-2cb57da0="" x="0" y="0" width="100%" height="100%" fill="#feffff" fill-opacity="1" class="background">
  </rect>
  <rect data-v-2cb57da0="" x="0" y="0" width="100%" height="100%" fill="url(#watermark)" fill-opacity="1"
    class="watermarklayer"></rect>
  <g data-v-2cb57da0="" fill="#333" class="iconlettersvg-g iconlettersvg"
    transform="translate(68.08281244567183,99.99904823303223)">
    <g>
      <g class="tp-name">
        <g transform="scale(1)">
          <g transform="translate(0, 0)">
            <g class="name-imagesvg">
              <g>
                <rect fill="#333" fill-opacity="0" stroke-width="2" x="0" y="0" width="51.09181695960323" height="50"
                  class="image-rect"></rect> <svg filter="url(#colors3479857765)" x="0" y="0" width="51.09181695960323"
                  height="50" filtersec="colorsb2669692295" class="image-svg-svg primary"
                  style="overflow: visible;"><svg xmlns="http://www.w3.org/2000/svg" viewBox="0 0 32.52 31.75">
                    <title>资源 34</title>
                    <g fill="#323333">
                      <path
                        d="M0 15.74C0 6.61 7.37 0 16.34 0v.78C7.75.79.79 7.06.78 15.74A15.2 15.2 0 0 0 16.22 31c8.07 0 15.51-5.83 15.52-15.6v-1.18h-15.3v-.78h16v1.96a16.07 16.07 0 0 1-5 12 16.6 16.6 0 0 1-11.32 4.35A16 16 0 0 1 0 15.74z">
                      </path>
                      <path
                        d="M16.18 26.24a9.71 9.71 0 0 1-6.55-2.55 10.45 10.45 0 0 1-3.19-8 10.15 10.15 0 0 1 3.17-7.64 9.78 9.78 0 0 1 6.53-2.53v3.12a6.65 6.65 0 0 0-4.42 1.71 7 7 0 0 0-2.16 5.39 7.36 7.36 0 0 0 2.18 5.66 6.66 6.66 0 0 0 4.44 1.72 6 6 0 0 0 4.54-1.67h-4.28v-3.13h8.92l-.55 2c-.94 3.56-4.25 5.94-8.47 5.94h-.16z">
                      </path>
                    </g>
                  </svg></svg>
                <defs>
                  <filter id="colors3479857765">
                    <feColorMatrix type="matrix"
                      values="0 0 0 0 0.19921875  0 0 0 0 0.19921875  0 0 0 0 0.19921875  0 0 0 1 0"
                      class="icon-fecolormatrix"></feColorMatrix>
                  </filter>
                  <filter id="colorsf1707563269">
                    <feColorMatrix type="matrix"
                      values="0 0 0 0 0.99609375  0 0 0 0 0.99609375  0 0 0 0 0.99609375  0 0 0 1 0"
                      class="icon-fecolormatrix"></feColorMatrix>
                  </filter>
                  <filter id="colorsb2669692295">
                    <feColorMatrix type="matrix" values="0 0 0 0 0  0 0 0 0 0  0 0 0 0 0  0 0 0 1 0"
                      class="icon-fecolormatrix"></feColorMatrix>
                  </filter>
                </defs>
              </g>
            </g>
          </g>
          <g transform="translate(51.09181695960323, 0)">
            <g class="name-imagesvg">
              <g>
                <rect fill="#333" fill-opacity="0" stroke-width="2" x="0" y="0" width="50.8253728844472" height="50"
                  class="image-rect"></rect> <svg filter="url(#colors4069376027)" x="0" y="0" width="50.8253728844472"
                  height="50" filtersec="colorsb8235174362" class="image-svg-svg primary"
                  style="overflow: visible;"><svg xmlns="http://www.w3.org/2000/svg" viewBox="0 0 32.39 31.86">
                    <title>资源 43</title>
                    <g fill="#323333">
                      <path
                        d="M0 16.29a17.39 17.39 0 0 1 1.2-6.54A16 16 0 0 1 16.17 0v.79a15.14 15.14 0 0 0-14.24 9.26 16.44 16.44 0 0 0-1.15 6.24 15.07 15.07 0 0 0 15.35 14.79A15.12 15.12 0 0 0 31.6 15.93 15.12 15.12 0 0 0 16.17.79V0a16 16 0 0 1 16.22 15.93 15.94 15.94 0 0 1-16.26 15.93A15.84 15.84 0 0 1 0 16.29z">
                      </path>
                      <path
                        d="M16.29 26.32v-3.14a5.87 5.87 0 0 0 4.83-2.34A8.23 8.23 0 0 0 22.78 16a8.32 8.32 0 0 0-1.67-5 5.94 5.94 0 0 0-4.9-2.36 6.12 6.12 0 0 0-4.87 2.22 7.85 7.85 0 0 0-1.73 4.95A7.91 7.91 0 0 0 11.43 21a6.2 6.2 0 0 0 4.86 2.17v3.14a9.37 9.37 0 0 1-7.24-3.27 11 11 0 0 1-2.58-7.2A11 11 0 0 1 8.93 8.9a9.28 9.28 0 0 1 7.28-3.36 9.13 9.13 0 0 1 7.37 3.58A11.39 11.39 0 0 1 25.92 16a11.27 11.27 0 0 1-2.33 6.79 9 9 0 0 1-7.25 3.56h-.05z">
                      </path>
                    </g>
                  </svg></svg>
                <defs>
                  <filter id="colors4069376027">
                    <feColorMatrix type="matrix"
                      values="0 0 0 0 0.19921875  0 0 0 0 0.19921875  0 0 0 0 0.19921875  0 0 0 1 0"
                      class="icon-fecolormatrix"></feColorMatrix>
                  </filter>
                  <filter id="colorsf3078829509">
                    <feColorMatrix type="matrix"
                      values="0 0 0 0 0.99609375  0 0 0 0 0.99609375  0 0 0 0 0.99609375  0 0 0 1 0"
                      class="icon-fecolormatrix"></feColorMatrix>
                  </filter>
                  <filter id="colorsb8235174362">
                    <feColorMatrix type="matrix" values="0 0 0 0 0  0 0 0 0 0  0 0 0 0 0  0 0 0 1 0"
                      class="icon-fecolormatrix"></feColorMatrix>
                  </filter>
                </defs>
              </g>
            </g>
          </g>
          <g transform="translate(101.91718984405043, 0)">
            <g class="name-imagesvg">
              <g>
                <rect fill="#333" fill-opacity="0" stroke-width="2" x="0" y="0" width="51.09181695960323" height="50"
                  class="image-rect"></rect> <svg filter="url(#colors9259200276)" x="0" y="0" width="51.09181695960323"
                  height="50" filtersec="colorsb7336446763" class="image-svg-svg primary"
                  style="overflow: visible;"><svg xmlns="http://www.w3.org/2000/svg" viewBox="0 0 32.52 31.75">
                    <title>资源 34</title>
                    <g fill="#323333">
                      <path
                        d="M0 15.74C0 6.61 7.37 0 16.34 0v.78C7.75.79.79 7.06.78 15.74A15.2 15.2 0 0 0 16.22 31c8.07 0 15.51-5.83 15.52-15.6v-1.18h-15.3v-.78h16v1.96a16.07 16.07 0 0 1-5 12 16.6 16.6 0 0 1-11.32 4.35A16 16 0 0 1 0 15.74z">
                      </path>
                      <path
                        d="M16.18 26.24a9.71 9.71 0 0 1-6.55-2.55 10.45 10.45 0 0 1-3.19-8 10.15 10.15 0 0 1 3.17-7.64 9.78 9.78 0 0 1 6.53-2.53v3.12a6.65 6.65 0 0 0-4.42 1.71 7 7 0 0 0-2.16 5.39 7.36 7.36 0 0 0 2.18 5.66 6.66 6.66 0 0 0 4.44 1.72 6 6 0 0 0 4.54-1.67h-4.28v-3.13h8.92l-.55 2c-.94 3.56-4.25 5.94-8.47 5.94h-.16z">
                      </path>
                    </g>
                  </svg></svg>
                <defs>
                  <filter id="colors9259200276">
                    <feColorMatrix type="matrix"
                      values="0 0 0 0 0.19921875  0 0 0 0 0.19921875  0 0 0 0 0.19921875  0 0 0 1 0"
                      class="icon-fecolormatrix"></feColorMatrix>
                  </filter>
                  <filter id="colorsf8095694094">
                    <feColorMatrix type="matrix"
                      values="0 0 0 0 0.99609375  0 0 0 0 0.99609375  0 0 0 0 0.99609375  0 0 0 1 0"
                      class="icon-fecolormatrix"></feColorMatrix>
                  </filter>
                  <filter id="colorsb7336446763">
                    <feColorMatrix type="matrix" values="0 0 0 0 0  0 0 0 0 0  0 0 0 0 0  0 0 0 1 0"
                      class="icon-fecolormatrix"></feColorMatrix>
                  </filter>
                </defs>
              </g>
            </g>
          </g>
          <g transform="translate(153.00900680365365, 0)">
            <g class="name-imagesvg">
              <g>
                <rect fill="#333" fill-opacity="0" stroke-width="2" x="0" y="0" width="50.8253728844472" height="50"
                  class="image-rect"></rect> <svg filter="url(#colors9608986978)" x="0" y="0" width="50.8253728844472"
                  height="50" filtersec="colorsb8525833963" class="image-svg-svg primary"
                  style="overflow: visible;"><svg xmlns="http://www.w3.org/2000/svg" viewBox="0 0 32.39 31.86">
                    <title>资源 43</title>
                    <g fill="#323333">
                      <path
                        d="M0 16.29a17.39 17.39 0 0 1 1.2-6.54A16 16 0 0 1 16.17 0v.79a15.14 15.14 0 0 0-14.24 9.26 16.44 16.44 0 0 0-1.15 6.24 15.07 15.07 0 0 0 15.35 14.79A15.12 15.12 0 0 0 31.6 15.93 15.12 15.12 0 0 0 16.17.79V0a16 16 0 0 1 16.22 15.93 15.94 15.94 0 0 1-16.26 15.93A15.84 15.84 0 0 1 0 16.29z">
                      </path>
                      <path
                        d="M16.29 26.32v-3.14a5.87 5.87 0 0 0 4.83-2.34A8.23 8.23 0 0 0 22.78 16a8.32 8.32 0 0 0-1.67-5 5.94 5.94 0 0 0-4.9-2.36 6.12 6.12 0 0 0-4.87 2.22 7.85 7.85 0 0 0-1.73 4.95A7.91 7.91 0 0 0 11.43 21a6.2 6.2 0 0 0 4.86 2.17v3.14a9.37 9.37 0 0 1-7.24-3.27 11 11 0 0 1-2.58-7.2A11 11 0 0 1 8.93 8.9a9.28 9.28 0 0 1 7.28-3.36 9.13 9.13 0 0 1 7.37 3.58A11.39 11.39 0 0 1 25.92 16a11.27 11.27 0 0 1-2.33 6.79 9 9 0 0 1-7.25 3.56h-.05z">
                      </path>
                    </g>
                  </svg></svg>
                <defs>
                  <filter id="colors9608986978">
                    <feColorMatrix type="matrix"
                      values="0 0 0 0 0.19921875  0 0 0 0 0.19921875  0 0 0 0 0.19921875  0 0 0 1 0"
                      class="icon-fecolormatrix"></feColorMatrix>
                  </filter>
                  <filter id="colorsf7874621784">
                    <feColorMatrix type="matrix"
                      values="0 0 0 0 0.99609375  0 0 0 0 0.99609375  0 0 0 0 0.99609375  0 0 0 1 0"
                      class="icon-fecolormatrix"></feColorMatrix>
                  </filter>
                  <filter id="colorsb8525833963">
                    <feColorMatrix type="matrix" values="0 0 0 0 0  0 0 0 0 0  0 0 0 0 0  0 0 0 1 0"
                      class="icon-fecolormatrix"></feColorMatrix>
                  </filter>
                </defs>
              </g>
            </g>
          </g>
        </g>
      </g>
    </g>
    <!---->
  </g>
  <defs v-gra="od"></defs>
</svg>